<svg height="511pt" viewBox="-62 0 511 511.99919" width="511pt" xmlns="http://www.w3.org/2000/svg"><path d="m152.601562 213.710938h-22.0625c-5.527343 0-10.007812-4.480469-10.007812-10.007813s4.480469-10.007813 10.007812-10.007813h.726563c.101563-.234374.207031-.46875.324219-.703124 2.511718-4.921876 8.539062-6.882813 13.460937-4.371094l12.097657 6.164062c4.121093 2.101563 6.265624 6.753906 5.1875 11.253906-1.082032 4.5-5.105469 7.671876-9.734376 7.671876zm0 0"/><path d="m255.722656 213.710938h-22.0625c-4.628906 0-8.648437-3.171876-9.730468-7.671876-1.082032-4.5 1.0625-9.152343 5.1875-11.253906l12.09375-6.164062c4.929687-2.507813 10.953124-.550782 13.460937 4.371094.117187.234374.226563.46875.324219.703124h.730468c5.527344 0 10.007813 4.480469 10.007813 10.007813-.003906 5.527344-4.484375 10.007813-10.011719 10.007813zm0 0"/><path d="m193.726562 270.605469c-6.09375 0-12.1875-2.316407-16.828124-6.953125-3.90625-3.90625-3.910157-10.242188-.003907-14.152344 3.910157-3.90625 10.246094-3.910156 14.152344-.003906 1.476563 1.476562 3.878906 1.476562 5.355469 0 3.910156-3.90625 10.246094-3.90625 14.152344.003906s3.902343 10.246094-.003907 14.152344c-4.640625 4.636718-10.734375 6.953125-16.824219 6.953125zm0 0"/><path d="m321.566406 469.808594c-.660156 0-1.308594-.066406-1.957031-.199219-.640625-.128906-1.269531-.320313-1.871094-.570313-.609375-.25-1.191406-.558593-1.730469-.917968-.550781-.359375-1.058593-.78125-1.519531-1.242188-.460937-.457031-.878906-.976562-1.238281-1.519531-.371094-.550781-.671875-1.128906-.933594-1.730469-.25-.609375-.4375-1.226562-.566406-1.867187-.132812-.652344-.191406-1.3125-.191406-1.960938 0-.648437.058594-1.308593.191406-1.949219.128906-.640624.316406-1.269531.566406-1.882812.261719-.597656.5625-1.179688.933594-1.71875.359375-.550781.777344-1.058594 1.238281-1.519531.460938-.472657.96875-.878907 1.519531-1.25.539063-.359375 1.121094-.671875 1.730469-.921875.601563-.25 1.230469-.4375 1.871094-.566406 1.289063-.261719 2.617187-.261719 3.910156 0 .636719.128906 1.269531.316406 1.867188.566406.613281.25 1.191406.5625 1.730469.921875.550781.371093 1.0625.777343 1.519531 1.25.460937.460937.882812.96875 1.25 1.519531.359375.539062.671875 1.121094.921875 1.71875.25.613281.4375 1.242188.570312 1.882812.128906.640626.1875 1.300782.1875 1.949219 0 .648438-.058594 1.308594-.1875 1.960938-.132812.640625-.320312 1.257812-.570312 1.867187-.25.601563-.5625 1.183594-.921875 1.730469-.367188.539063-.789063 1.0625-1.25 1.519531-.457031.460938-.96875.882813-1.519531 1.242188-.539063.359375-1.117188.667968-1.730469.917968-.597657.25-1.230469.441407-1.867188.570313-.640625.132813-1.300781.199219-1.953125.199219zm0 0"/><path d="m386.675781 161.710938c0-27.601563-30.304687-51.472657-83.449219-65.996094l-15.726562-74c-.054688-.257813-.121094-.511719-.195312-.761719-4.207032-14.210937-18.375-22.921875-32.941407-20.261719-.394531.070313-.789062.167969-1.171875.285156l-59.605468 18.5-60.628907-18.71875c-.382812-.117187-.769531-.214843-1.164062-.285156-13.921875-2.527344-27.542969 5.28125-32.382813 18.585938-.175781.476562-.3125.96875-.410156 1.46875l-14.9375 75.144531c-16.117188 4.402344-30.46875 9.789063-42.59375 16.035156-33.859375 17.4375-40.96875 36.816407-40.96875 50.003907 0 22.242187 20.152344 48.558593 53.972656 70.550781-.40625 29.527343-.40625 29.621093-.40625 29.75.152344 22.71875 9.09375 42.117187 25.859375 56.105469.535157.445312 1.078125.886718 1.628907 1.320312-14.941407 4.140625-25.941407 17.859375-25.941407 34.101562v27.550782c-.003906.121094-.007812.242187-.007812.363281v120.539063c0 5.527343 4.480469 10.007812 10.007812 10.007812h36.488281c.121094 0 .234376-.003906.351563-.007812h182.265625c.117188.003906.234375.007812.355469.007812h36.488281c5.527344 0 10.007812-4.480469 10.007812-10.007812 0-5.527344-4.480468-10.007813-10.007812-10.007813h-26.480469v-100.523437h16.472657v26.980468c0 5.523438 4.480468 10.003906 10.007812 10.003906s10.007812-4.476562 10.007812-10.003906v-36.984375c0-.125-.003906-.246093-.007812-.367187v-27.550782c0-16.210937-10.960938-29.910156-25.859375-34.082031.472656-.375.945313-.753906 1.40625-1.140625 16.601563-13.792968 25.835937-33.761718 26-56.21875 0-.117187 0-.25-.40625-29.835937 33.839844-21.996094 53.972656-48.265625 53.972656-70.550781zm-268.222656-136.390626c1.597656-3.601562 5.355469-5.726562 9.273437-5.230468l62.914063 19.425781c1.925781.59375 3.988281.59375 5.917969-.003906l61.882812-19.207031c4.210938-.535157 8.222656 1.976562 9.574219 6.023437l13.683594 64.390625c-29.011719-5.832031-58.59375-8.679688-88.101563-8.460938-19.527344-.023437-39.132812 1.179688-58.414062 3.554688-10.3125 1.285156-20.242188 2.894531-29.710938 4.808594zm-44.371094 236.640626c.03125-2.386719.746094-54.3125 1.054688-76.648438.140625-10.417969 6.59375-19.386719 15.660156-23.265625v80.949219c0 37.242187 14.601563 59.722656 30.332031 73.132812-25.308594-5.550781-46.792968-22.914062-47.046875-54.167968zm96.789063-77.320313v12.589844c0 16.558593-13.472656 30.027343-30.03125 30.027343-16.554688 0-30.027344-13.46875-30.027344-30.027343v-12.589844zm-30.03125 62.632813c27.597656 0 50.046875-22.449219 50.046875-50.042969v-12.589844h5.269531v12.589844c0 27.59375 22.449219 50.042969 50.042969 50.042969 9.832031 0 19.007812-2.851563 26.75-7.765626-7.636719 28.726563-28.664063 46.128907-63.671875 52.914063-5.285156 1.023437-8.8125 6.046875-7.980469 11.367187l2.242187 14.359376h-19.898437l2.242187-14.359376c.832032-5.320312-2.695312-10.34375-7.984374-11.367187-34.9375-6.773437-55.976563-24.160156-63.707032-52.851563 7.722656 4.878907 16.863282 7.703126 26.648438 7.703126zm135.390625-62.632813v12.589844c0 16.558593-13.472657 30.027343-30.027344 30.027343h-.003906c-16.558594 0-30.027344-13.46875-30.027344-30.027343v-12.589844zm-111.5625 125.292969-.949219 6.054687c-11.117188-2.90625-27.171875-9.585937-38.671875-24.824219 10.761719 8.402344 23.996094 14.695313 39.621094 18.769532zm51.074219 28.265625-22.222657 35.847656-22.21875-35.847656zm7.675781-22.476563-.902344-5.785156c14.871094-3.882812 27.578125-9.761719 38.039063-17.554688-11.316407 13.890626-26.429688 20.359376-37.136719 23.339844zm52.8125-151.09375h-165.417969v-4.632812h43.988281c.191407 0 .382813-.003906.570313-.015625 17.4375-1 64.082031-14.296875 78.472656-18.5 9.757812 4.609375 28.824219 13.214843 42.386719 16.839843zm-184.132813 327.359375h-16.476562v-100.527343h16.476562zm204.078125-153.832031c8.484375 0 15.386719 6.898438 15.386719 15.382812v17.910157h-26.488281c-5.527344 0-10.007813 4.480469-10.007813 10.007812v110.535157h-162.953125v-110.535157c0-5.527343-4.480469-10.007812-10.007812-10.007812h-26.488281v-17.910157c0-8.480468 6.902343-15.382812 15.382812-15.382812h56.726562l37.289063 60.15625c1.828125 2.941406 5.042969 4.734375 8.507813 4.734375 3.460937 0 6.679687-1.792969 8.503906-4.734375l37.261718-60.113281zm-31.421875-21.660156c16.132813-13.355469 31.425782-35.929688 31.492188-73.5v-80.953125c9.144531 3.910156 15.65625 12.988281 15.800781 23.539062.492187 35.824219 1.023437 74.394531 1.046875 76.453125-.269531 31.851563-22.460938 49.253906-48.339844 54.460938zm67.617188-108.414063c-.089844-6.71875-.195313-14.273437-.3125-22.773437-.34375-24.992188-20.902344-45.324219-45.820313-45.324219-5.683593 0-28.988281-9.410156-47.191406-18.195313-2.242187-1.082031-4.8125-1.292968-7.199219-.582031-16.542968 4.914063-62.476562 17.800781-77.351562 18.777344h-53.691406c-24.84375 0-45.339844 20.210937-45.679688 45.050781-.121094 8.613282-.226562 16.253906-.320312 23.042969-23.585938-17.808594-34.289063-35.570313-34.289063-46.367187 0-10.769532 10.695313-22.210938 30.117187-32.210938 21.441407-11.042969 52.351563-19.507812 87.015626-23.824219 18.332031-2.257812 37.027343-3.402343 55.652343-3.402343h.363281c33.03125-.214844 66.078126 3.519531 98.242188 11.167968 45.414062 11.382813 74.757812 30.324219 74.757812 48.269532 0 10.835937-10.710937 28.574218-34.292968 46.371093zm0 0"/></svg>